# xmcd
#
# Track frame offsets: 
#        150
#        11062
#        21615
#        31940
#        43047
#        52665
#        62412
#        73305
#        82135
#        94187
#        107485
#        119417
#
# Disc length: 1734 seconds
#
# Revision: 1
# Processed by: cddbd v1.5.2PL0 Copyright (c) Steve Scherf et al.
# Submitted via: ExactAudioCopy v1.0b3
#
DISCID=9f06c40c
DTITLE=Joni James - Joni James - The Mood Is Swinging
DYEAR=1961
DGENRE=Jazz
TTITLE0=This Could Be The Start Of Something
TTITLE1=Ain't Misbehavin'
TTITLE2=A Lot Of Livin' To Do
TTITLE3=Just In Time
TTITLE4=The Lady Is A Tramp
TTITLE5=I Get A Kick Out Of You
TTITLE6=It's All Right With Me
TTITLE7=When My Sugar Walks Down The Street
TTITLE8=Something's Gotta Give
TTITLE9=Day In-Day Out
TTITLE10=Cheek To Cheek
TTITLE11=I'm Shooting High
EXTD=YEAR: 1961
EXTT0=
EXTT1=
EXTT2=
EXTT3=
EXTT4=
EXTT5=
EXTT6=
EXTT7=
EXTT8=
EXTT9=
EXTT10=
EXTT11=
PLAYORDER=
